<svg width="57" height="56" viewBox="0 0 57 56" fill="none" xmlns="http://www.w3.org/2000/svg">
<g filter="url(#filter0_d_23040_10853)">
<rect x="4.5" width="48" height="48" rx="24" fill="white" fill-opacity="0.9" shape-rendering="crispEdges"/>
<g clip-path="url(#clip0_23040_10853)">
<path d="M42.5 38H40.5V33C40.4985 31.6744 39.9712 30.4035 39.0339 29.4661C38.0965 28.5288 36.8256 28.0015 35.5 28V26C37.3559 26.0021 39.1352 26.7402 40.4475 28.0525C41.7598 29.3648 42.4979 31.1441 42.5 33V38Z" fill="#092704"/>
<path d="M34.5 38H32.5V33C32.4984 31.6744 31.9712 30.4035 31.0338 29.4662C30.0965 28.5288 28.8256 28.0016 27.5 28H21.5C20.1744 28.0016 18.9035 28.5288 17.9662 29.4662C17.0288 30.4035 16.5016 31.6744 16.5 33V38H14.5V33C14.5022 31.1442 15.2404 29.3649 16.5526 28.0526C17.8649 26.7404 19.6442 26.0022 21.5 26H27.5C29.3558 26.0022 31.1351 26.7404 32.4474 28.0526C33.7596 29.3649 34.4978 31.1442 34.5 33V38Z" fill="#092704"/>
<path d="M32.5 10V12C33.8261 12 35.0979 12.5268 36.0355 13.4645C36.9732 14.4021 37.5 15.6739 37.5 17C37.5 18.3261 36.9732 19.5979 36.0355 20.5355C35.0979 21.4732 33.8261 22 32.5 22V24C34.3565 24 36.137 23.2625 37.4497 21.9497C38.7625 20.637 39.5 18.8565 39.5 17C39.5 15.1435 38.7625 13.363 37.4497 12.0503C36.137 10.7375 34.3565 10 32.5 10Z" fill="#092704"/>
<path d="M24.5 12C25.4889 12 26.4556 12.2932 27.2779 12.8427C28.1001 13.3921 28.741 14.173 29.1194 15.0866C29.4978 16.0002 29.5969 17.0055 29.4039 17.9755C29.211 18.9454 28.7348 19.8363 28.0355 20.5355C27.3363 21.2348 26.4454 21.711 25.4755 21.9039C24.5055 22.0969 23.5002 21.9978 22.5866 21.6194C21.673 21.241 20.8921 20.6001 20.3427 19.7779C19.7932 18.9556 19.5 17.9889 19.5 17C19.5 15.6739 20.0268 14.4021 20.9645 13.4645C21.9022 12.5268 23.1739 12 24.5 12ZM24.5 10C23.1155 10 21.7622 10.4105 20.611 11.1797C19.4599 11.9489 18.5627 13.0421 18.0328 14.3212C17.503 15.6003 17.3644 17.0078 17.6345 18.3656C17.9046 19.7235 18.5713 20.9708 19.5503 21.9497C20.5292 22.9287 21.7765 23.5954 23.1344 23.8655C24.4922 24.1356 25.8997 23.997 27.1788 23.4672C28.4579 22.9373 29.5511 22.0401 30.3203 20.889C31.0895 19.7378 31.5 18.3845 31.5 17C31.5 15.1435 30.7625 13.363 29.4497 12.0503C28.137 10.7375 26.3565 10 24.5 10Z" fill="#092704"/>
</g>
</g>
<defs>
<filter id="filter0_d_23040_10853" x="0.5" y="0" width="56" height="56" filterUnits="userSpaceOnUse" color-interpolation-filters="sRGB">
<feFlood flood-opacity="0" result="BackgroundImageFix"/>
<feColorMatrix in="SourceAlpha" type="matrix" values="0 0 0 0 0 0 0 0 0 0 0 0 0 0 0 0 0 0 127 0" result="hardAlpha"/>
<feOffset dy="4"/>
<feGaussianBlur stdDeviation="2"/>
<feComposite in2="hardAlpha" operator="out"/>
<feColorMatrix type="matrix" values="0 0 0 0 0.305882 0 0 0 0 0.0901961 0 0 0 0 0.027451 0 0 0 0.3 0"/>
<feBlend mode="normal" in2="BackgroundImageFix" result="effect1_dropShadow_23040_10853"/>
<feBlend mode="normal" in="SourceGraphic" in2="effect1_dropShadow_23040_10853" result="shape"/>
</filter>
<clipPath id="clip0_23040_10853">
<rect width="32" height="32" fill="white" transform="translate(12.5 8)"/>
</clipPath>
</defs>
</svg>
