<svg width="33" height="32" viewBox="0 0 33 32" fill="none" xmlns="http://www.w3.org/2000/svg">
<g clip-path="url(#clip0_23040_10844)">
<path d="M26.5 6V10H6.5V6H26.5ZM26.5 4H6.5C5.96957 4 5.46086 4.21071 5.08579 4.58579C4.71071 4.96086 4.5 5.46957 4.5 6V10C4.5 10.5304 4.71071 11.0391 5.08579 11.4142C5.46086 11.7893 5.96957 12 6.5 12H26.5C27.0304 12 27.5391 11.7893 27.9142 11.4142C28.2893 11.0391 28.5 10.5304 28.5 10V6C28.5 5.46957 28.2893 4.96086 27.9142 4.58579C27.5391 4.21071 27.0304 4 26.5 4Z" fill="white"/>
<path d="M10.5 16V26H6.5V16H10.5ZM10.5 14H6.5C5.96957 14 5.46086 14.2107 5.08579 14.5858C4.71071 14.9609 4.5 15.4696 4.5 16V26C4.5 26.5304 4.71071 27.0391 5.08579 27.4142C5.46086 27.7893 5.96957 28 6.5 28H10.5C11.0304 28 11.5391 27.7893 11.9142 27.4142C12.2893 27.0391 12.5 26.5304 12.5 26V16C12.5 15.4696 12.2893 14.9609 11.9142 14.5858C11.5391 14.2107 11.0304 14 10.5 14Z" fill="white"/>
<path d="M26.5 16V26H16.5V16H26.5ZM26.5 14H16.5C15.9696 14 15.4609 14.2107 15.0858 14.5858C14.7107 14.9609 14.5 15.4696 14.5 16V26C14.5 26.5304 14.7107 27.0391 15.0858 27.4142C15.4609 27.7893 15.9696 28 16.5 28H26.5C27.0304 28 27.5391 27.7893 27.9142 27.4142C28.2893 27.0391 28.5 26.5304 28.5 26V16C28.5 15.4696 28.2893 14.9609 27.9142 14.5858C27.5391 14.2107 27.0304 14 26.5 14Z" fill="white"/>
</g>
<defs>
<clipPath id="clip0_23040_10844">
<rect width="32" height="32" fill="white" transform="translate(0.5)"/>
</clipPath>
</defs>
</svg>
