<svg width="33" height="32" viewBox="0 0 33 32" fill="none" xmlns="http://www.w3.org/2000/svg">
<g clip-path="url(#clip0_23040_10882)">
<path d="M28.5 17H18.5C17.9698 17.0007 17.4614 17.2116 17.0865 17.5865C16.7116 17.9614 16.5007 18.4698 16.5 19V25C16.5007 25.5302 16.7116 26.0386 17.0865 26.4135C17.4614 26.7884 17.9698 26.9993 18.5 27H22.5V25H18.5V19H28.5V25H25.9648L23.3711 28.8906L25.0352 30L27.0352 27H28.5C29.0302 26.9993 29.5386 26.7884 29.9135 26.4135C30.2884 26.0386 30.4993 25.5302 30.5 25V19C30.4993 18.4698 30.2884 17.9614 29.9135 17.5865C29.5386 17.2116 29.0302 17.0007 28.5 17Z" fill="white"/>
<path d="M9.16673 24.1086L10.0281 23.2471C10.1435 23.1318 10.2901 23.0529 10.4499 23.0201C10.6096 22.9873 10.7755 23.0021 10.9269 23.0627L11.9762 23.4827C12.1308 23.5446 12.2633 23.6513 12.3567 23.7891C12.45 23.927 12.5 24.0896 12.5 24.2561V26.1643C12.5003 26.2777 12.4774 26.39 12.4328 26.4942C12.3881 26.5985 12.3227 26.6926 12.2404 26.7706C12.1582 26.8487 12.0609 26.9092 11.9544 26.9484C11.848 26.9875 11.7347 27.0046 11.6214 26.9984C4.26683 26.5406 2.78143 20.3121 2.50563 17.9261C2.49229 17.8095 2.50379 17.6913 2.53939 17.5795C2.57498 17.4676 2.63385 17.3645 2.71213 17.2771C2.79041 17.1896 2.88632 17.1197 2.99357 17.0719C3.10081 17.0242 3.21694 16.9997 3.33433 17H5.20853C5.37507 17 5.53777 17.0499 5.67568 17.1433C5.81358 17.2367 5.92035 17.3692 5.98223 17.5238L6.40223 18.5731C6.46283 18.7245 6.47764 18.8904 6.44485 19.0502C6.41205 19.21 6.33308 19.3566 6.21773 19.4719L5.35633 20.3333C5.50615 21.2865 5.95666 22.167 6.64212 22.8461C7.32759 23.5253 8.21215 23.9676 9.16673 24.1086Z" fill="white"/>
<path d="M28.5 9H21.5V11H28.5V9Z" fill="white"/>
<path d="M30.5 5H21.5V7H30.5V5Z" fill="#F8F8F8"/>
<path d="M17.5 6L14.5 8.2V6C14.4994 5.46976 14.2884 4.96142 13.9135 4.58649C13.5386 4.21155 13.0302 4.00064 12.5 4H4.5C3.96976 4.00064 3.46142 4.21155 3.08649 4.58649C2.71155 4.96142 2.50064 5.46976 2.5 6V12C2.50064 12.5302 2.71155 13.0386 3.08649 13.4135C3.46142 13.7884 3.96976 13.9994 4.5 14H12.5C13.0302 13.9994 13.5386 13.7884 13.9135 13.4135C14.2884 13.0386 14.4994 12.5302 14.5 12V9.8L17.5 12V6ZM4.5 12V6H12.5V12H4.5Z" fill="#F8F8F8"/>
</g>
<defs>
<clipPath id="clip0_23040_10882">
<rect width="32" height="32" fill="white" transform="translate(0.5)"/>
</clipPath>
</defs>
</svg>
