<svg width="33" height="32" viewBox="0 0 33 32" fill="none" xmlns="http://www.w3.org/2000/svg">
<g clip-path="url(#clip0_23040_10875)">
<path d="M21.5 24H11.5V26H21.5V24Z" fill="#F8F8F8"/>
<path d="M19.5 28H13.5V30H19.5V28Z" fill="#F8F8F8"/>
<path d="M16.4999 2C13.8478 2 11.3042 3.05357 9.42886 4.92893C7.55349 6.8043 6.49992 9.34784 6.49992 12C6.4323 13.4533 6.7107 14.902 7.31222 16.2267C7.91374 17.5514 8.82119 18.7144 9.95992 19.62C10.9599 20.55 11.4999 21.08 11.4999 22H13.4999C13.4999 20.16 12.3899 19.13 11.3099 18.14C10.3753 17.4243 9.63039 16.4903 9.1405 15.4198C8.65061 14.3494 8.43067 13.1752 8.49992 12C8.49992 9.87827 9.34278 7.84344 10.8431 6.34315C12.3434 4.84285 14.3782 4 16.4999 4C18.6217 4 20.6565 4.84285 22.1568 6.34315C23.6571 7.84344 24.4999 9.87827 24.4999 12C24.568 13.176 24.3465 14.3508 23.8549 15.4213C23.3632 16.4918 22.6164 17.4253 21.6799 18.14C20.6099 19.14 19.4999 20.14 19.4999 22H21.4999C21.4999 21.08 22.0299 20.55 23.0399 19.61C24.1779 18.706 25.0849 17.5447 25.6864 16.2217C26.2879 14.8987 26.5668 13.4518 26.4999 12C26.4999 10.6868 26.2413 9.38642 25.7387 8.17317C25.2362 6.95991 24.4996 5.85752 23.571 4.92893C22.6424 4.00035 21.54 3.26375 20.3268 2.7612C19.1135 2.25866 17.8131 2 16.4999 2Z" fill="#F8F8F8"/>
</g>
<defs>
<clipPath id="clip0_23040_10875">
<rect width="32" height="32" fill="white" transform="translate(0.5)"/>
</clipPath>
</defs>
</svg>
