<svg width="27" height="29" viewBox="0 0 27 29" fill="none" xmlns="http://www.w3.org/2000/svg">
<path d="M23.5 15.5859V13H21.5V16C21.5001 16.2652 21.6054 16.5195 21.793 16.707L24.5 19.4141V21H2.5V19.4141L5.207 16.707C5.39455 16.5195 5.49994 16.2652 5.5 16V12C5.49742 10.5949 5.86565 9.21396 6.5675 7.99669C7.26936 6.77941 8.27998 5.76888 9.49732 5.06713C10.7147 4.36539 12.0956 3.99728 13.5007 3.99998C14.9058 4.00267 16.2854 4.37608 17.5 5.0825V2.8467C16.5481 2.42526 15.5356 2.15665 14.5 2.0508V0H12.5V2.0508C10.0347 2.30163 7.74992 3.45768 6.08753 5.29539C4.42514 7.13311 3.50321 9.52195 3.5 12V15.5859L0.793 18.293C0.605451 18.4805 0.500057 18.7348 0.5 19V22C0.5 22.2652 0.605357 22.5196 0.792893 22.7071C0.98043 22.8946 1.23478 23 1.5 23H8.5V24C8.5 25.3261 9.02678 26.5979 9.96447 27.5355C10.9021 28.4732 12.1739 29 13.5 29C14.8261 29 16.0979 28.4732 17.0355 27.5355C17.9732 26.5979 18.5 25.3261 18.5 24V23H25.5C25.7652 23 26.0196 22.8946 26.2071 22.7071C26.3946 22.5196 26.5 22.2652 26.5 22V19C26.4999 18.7348 26.3946 18.4805 26.207 18.293L23.5 15.5859ZM16.5 24C16.5 24.7956 16.1839 25.5587 15.6213 26.1213C15.0587 26.6839 14.2956 27 13.5 27C12.7044 27 11.9413 26.6839 11.3787 26.1213C10.8161 25.5587 10.5 24.7956 10.5 24V23H16.5V24Z" fill="#F8F8F8"/>
</svg>
